<?xml version='1.0' encoding='utf-8'?>
<svg xmlns="http://www.w3.org/2000/svg" width="758" height="182" viewBox="134 426 758 182"><path d="M348.112 477.621C364.828 476.69 371.758 478.746 380.797 493.552C380.591 488.951 380.601 483.941 380.519 479.304L389.871 479.394C389.005 504.984 391.069 531.281 389.502 556.815C387.892 583.044 355.422 588.981 335.952 579.105C327.783 574.961 324.245 567.084 322.104 558.784C324.691 558.672 328.705 558.403 331.116 559.203C336.055 569.794 343.002 574.274 354.551 574.618C383.199 575.47 380.551 555.019 380.919 535.155C375.63 542.962 371.245 548.565 361.369 550.773C324.95 558.912 310.627 517.739 326.809 490.81C331.793 482.515 339.171 479.462 348.112 477.621ZM360.117 542.905C366.761 541.519 371.657 539.036 375.443 533.004C388.082 512.867 378.892 481.69 350.674 485.158C339.472 486.81 334.133 493.235 331.1 503.69C325.118 524.306 335.624 546.318 360.117 542.905Z" fill="#ffffff" /><path d="M180.295 477.626C182.312 477.386 188.115 477.322 190.318 477.456C222.328 478.803 215.031 509.154 215.411 531.138C215.671 546.118 217.646 544.827 231.18 544.643L231.309 553.019C218.976 553.647 210.348 555.807 206.658 541.626C196.812 558.002 173.79 559.208 159.712 547.876C152.582 541.003 151.508 527.994 158.326 520.859C168.835 509.863 192.144 510.664 206.421 509.779C206.416 504.932 206.792 497.949 204.364 493.678C199.04 484.312 182.741 483.105 174.046 488.058C168.838 491.024 167.447 495.686 166.009 501.096L157.2 500.999C159.333 485.316 164.86 480.321 180.295 477.626ZM174.589 546.428C182.774 547.928 190.506 547.716 197.686 542.852C206.512 536.874 206.995 527.518 206.291 517.96C203.193 518.013 199.917 518.011 196.845 518.218C185.932 518.911 162.112 519.256 163.431 535.765C163.92 541.884 169.006 544.628 174.283 546.327L174.589 546.428Z" fill="#ffffff" /><path d="M439.729 477.613C440.708 477.55 441.688 477.505 442.669 477.478C472.504 476.636 477.291 494.514 477.785 519.909C458.075 519.878 438.365 519.949 418.655 520.124C419.799 526.043 420.76 532.645 424.423 537.569C433.214 549.386 451.658 550.337 463.03 542.057C465.067 539.886 466.424 537.098 467.867 534.478L477.602 534.477C474.051 545.661 468.872 551.457 457.105 554.212C446.722 556.67 434.12 555.759 424.848 549.975C406.858 538.753 406.442 507.069 416.853 490.751C422.164 482.428 430.407 479.358 439.729 477.613ZM419.158 511.455L445.016 511.509C453.008 511.529 461.213 511.646 469.187 511.524C466.789 494.915 462.698 485.574 443.918 485.201C426.265 486.45 421.302 495.267 419.158 511.455Z" fill="#ffffff" /><path fill="#10E895" d="M721.838 448.596C736.55 448.726 751.263 448.728 765.974 448.601C765.577 480.549 766.015 512.785 765.746 544.793L791.418 544.67L791.405 554.024L765.125 554.032L730.268 554.058L730.205 544.776C738.764 544.959 747.635 544.769 756.253 544.822C756.234 516.086 756.073 486.894 756.433 458.178C748.881 458.745 730.419 458.173 721.878 458.192L721.838 448.596Z" /><path d="M529.691 477.578C544.595 476.357 558.943 480.478 562.782 497.127C564.715 505.51 564.037 514.487 564.017 523.081L563.979 553.009L555.006 553.023C554.824 536.614 557.071 514.143 553.509 498.199C550.269 483.698 532.797 483.926 520.703 487.961C505.397 493.979 506.467 513.347 506.754 526.748C506.94 535.438 506.838 544.159 506.781 552.852L498.008 552.9C497.72 528.577 497.971 503.778 498 479.419L507.078 479.486L507.06 494.266C507.757 493.001 508.495 491.759 509.272 490.541C514.83 481.988 520.256 479.618 529.691 477.578Z" fill="#ffffff" /><path d="M600.029 452.525L609.037 452.587L608.962 479.113L636.255 479.108L636.196 486.985L608.523 487.083C609.411 503.136 608.348 519.949 608.904 535.99C609.404 550.416 635.552 545.424 644.666 544.094C644.84 546.848 644.87 549.915 644.952 552.701C635.059 553.69 612.134 556.891 604.321 549.521C597.63 543.208 599.824 528.023 599.927 519.25L600.002 487.025L580.551 487.084L580.495 479.394C586.938 479.487 593.521 479.43 599.976 479.442C599.871 470.571 600.009 461.419 600.029 452.525Z" fill="#ffffff" /><path d="M241.416 478.859C248.587 478.86 273.061 478.222 277.654 480.087C282.002 484.75 280.807 501.823 280.797 508.561L280.741 545.354L308.342 545.461L308.322 553.801C300.028 553.627 291.39 553.81 283.068 553.876L243.413 553.771L243.342 545.341L270.993 545.468L270.94 487.068L241.489 487.058L241.416 478.859Z" fill="#ffffff" /><path d="M810.027 479.238L810.916 479.388C813.122 481.052 836.387 535.547 838.66 541.603L850.517 541.618C842.064 565.929 837.885 583.99 806.886 578.766L799.581 577.906C799.518 575.081 799.559 572.099 799.551 569.258C815.878 571.489 828.736 576.137 836.044 557.008C824.823 531.342 812.438 505.155 801.858 479.346L810.027 479.238Z" fill="#ffffff" /><path fill="#10E895" d="M663.473 513.691C666.482 513.571 669.808 513.62 672.846 513.602L672.899 544.675C686.236 544.786 699.574 544.814 712.911 544.757L712.878 554.025L663.424 553.993L663.473 513.691Z" /><path fill="#10E895" d="M862.638 479.098C866.084 479.077 869.647 479.161 873.104 479.197C865.417 497.062 859.588 514.334 852.413 532.163L841.837 532.185C848.112 516.179 855.718 494.257 862.638 479.098Z" /><path d="M271.98 445.82C276.603 444.41 281.498 446.993 282.944 451.604C284.39 456.216 281.847 461.131 277.247 462.614C272.595 464.113 267.612 461.535 266.15 456.871C264.687 452.207 267.305 447.245 271.98 445.82Z" fill="#ffffff" /></svg>